# xmcd CD database file
#
# Track frame offsets:
#	182
#	16592
#	27047
#	45247
#	53632
#	70082
#	81287
#	92902
#	107282
#	120215
#
# Disc length: 1896 seconds
#
# Revision: 0
# Processed by: cddbd v1.4PL0 Copyright (c) Steve Scherf et al.
# Submitted via: Feurio! 1.66 - http://www.feurio.com
#
DISCID=6107660a
DTITLE=Gudrun Lange and Kaktus - Es ist Weihnacht
DYEAR=1900
DGENRE=country
TTITLE0=Es ist Weihnacht
TTITLE1=Rocking Aroumd Christmas Tree
TTITLE2=Der Weihnachtsmann im Erzgebirge
TTITLE3=Let It Snow
TTITLE4=Ein neuer Stern
TTITLE5=With Bells on
TTITLE6=Winter Wonderland
TTITLE7=O Holy Night
TTITLE8=Rudolph, the Red-Nosed Reindeer
TTITLE9=Lautlos fällt der Schnee
EXTD=
EXTT0=
EXTT1=
EXTT2=
EXTT3=
EXTT4=
EXTT5=
EXTT6=
EXTT7=
EXTT8=
EXTT9=
PLAYORDER=
